<svg width="17" height="14" viewBox="0 0 17 14" fill="none" xmlns="http://www.w3.org/2000/svg">
<path d="M16.171 1.93696C15.5958 2.19245 14.9773 2.36485 14.3279 2.4422C14.9906 2.04532 15.4992 1.41651 15.7389 0.666802C15.1188 1.03469 14.4324 1.3018 13.7012 1.44582C13.116 0.822154 12.2819 0.432392 11.3591 0.432392C9.5869 0.432392 8.15012 1.8692 8.15012 3.64136C8.15012 3.89282 8.17847 4.13761 8.2332 4.37247C5.56624 4.23883 3.20157 2.9614 1.6189 1.0198C1.34277 1.49357 1.18449 2.04472 1.18449 2.63304C1.18449 3.74629 1.75098 4.72841 2.612 5.30404C2.08613 5.28715 1.59112 5.14297 1.15859 4.9025C1.1583 4.91583 1.1583 4.92933 1.1583 4.94314C1.1583 6.49762 2.26444 7.79457 3.73255 8.08959C3.46325 8.16277 3.17972 8.20214 2.88702 8.20214C2.68004 8.20214 2.47913 8.18214 2.28317 8.14449C2.6917 9.41928 3.87673 10.3471 5.28068 10.373C4.18245 11.2338 2.79895 11.7467 1.29533 11.7467C1.03644 11.7467 0.78111 11.7314 0.529968 11.7019C1.95033 12.6126 3.63689 13.1437 5.44902 13.1437C11.3516 13.1437 14.579 8.25393 14.579 4.01341C14.579 3.8745 14.5762 3.73575 14.57 3.59824C15.1968 3.14587 15.7411 2.58066 16.171 1.93696Z" fill="black"/>
</svg>
